<svg xmlns="http://www.w3.org/2000/svg" xmlns:xlink="http://www.w3.org/1999/xlink" width="78.752" height="55.107" viewBox="0 0 78.752 55.107">
  <defs>
    <linearGradient id="linear-gradient" x1="0.5" x2="0.5" y2="1" gradientUnits="objectBoundingBox">
      <stop offset="0" stop-color="#1c1c1c"/>
      <stop offset="1" stop-color="#707070"/>
    </linearGradient>
  </defs>
  <g id="Group_6" data-name="Group 6" transform="translate(-85.023 -295.039)">
    <path id="Path_27" data-name="Path 27" d="M135.43,337.009c0-3.5.008-7.005,0-10.507a6.364,6.364,0,0,1,1.808-4.575c3.822-4.041,7.814-7.913,11.741-11.85a3.91,3.91,0,0,1,5.743-.134,3.951,3.951,0,0,1-.174,5.753c-1.786,1.82-3.611,3.6-5.4,5.416a1.916,1.916,0,0,0-.4,2.432,1.946,1.946,0,0,0,2.22.888,2.333,2.333,0,0,0,1.061-.7q5.273-5.286,10.556-10.561a1.543,1.543,0,0,0,.414-1.245c-.006-4.24-.023-8.48.006-12.72a3.912,3.912,0,0,1,4.668-4.113,3.851,3.851,0,0,1,3.147,3.175,10.12,10.12,0,0,1,.085,1.378c.005,5.654-.027,11.307.02,16.96a7.119,7.119,0,0,1-2.305,5.477c-5.642,5.479-11.213,11.032-16.829,16.539a1.707,1.707,0,0,0-.547,1.37c.024,2.581.015,5.162.009,7.743,0,1.621-.738,2.388-2.349,2.395q-5.576.024-11.153,0a2.056,2.056,0,0,1-2.311-2.339C135.424,344.2,135.43,340.6,135.43,337.009Z" transform="translate(-7.143 0)" fill="url(#linear-gradient)"/>
    <path id="Path_28" data-name="Path 28" d="M120.5,336.959q0,5.347,0,10.693c0,1.744-.715,2.478-2.448,2.483q-5.486.015-10.97,0c-1.671-.007-2.394-.758-2.4-2.44,0-2.582-.014-5.163.009-7.743a1.618,1.618,0,0,0-.509-1.293c-5.7-5.594-11.378-11.217-17.089-16.8a6.432,6.432,0,0,1-2.07-4.827c.013-5.93-.006-11.861.011-17.791a3.952,3.952,0,0,1,7.688-1.523,5.475,5.475,0,0,1,.216,1.817q.005,6.222,0,12.444a1.545,1.545,0,0,0,.451,1.229c3.53,3.51,7.036,7.044,10.556,10.564a2.013,2.013,0,0,0,2.494.5,1.859,1.859,0,0,0,.984-2.008,2.291,2.291,0,0,0-.785-1.315c-1.826-1.825-3.667-3.634-5.461-5.49a3.787,3.787,0,0,1-.727-4.422,3.843,3.843,0,0,1,3.7-2.266,3.788,3.788,0,0,1,2.707,1.2c3.977,4.018,8.058,7.932,11.928,12.056a6.126,6.126,0,0,1,1.713,4.333Q120.5,331.659,120.5,336.959Z" transform="translate(0)" fill="url(#linear-gradient)"/>
  </g>
</svg>
