<svg xmlns="http://www.w3.org/2000/svg" xmlns:xlink="http://www.w3.org/1999/xlink" width="64.375" height="49.513" viewBox="0 0 64.375 49.513">
  <defs>
    <linearGradient id="linear-gradient" x1="0.5" x2="0.5" y2="1" gradientUnits="objectBoundingBox">
      <stop offset="0" stop-color="#1c1c1c"/>
      <stop offset="1" stop-color="#707070"/>
    </linearGradient>
  </defs>
  <g id="Group_3" data-name="Group 3" transform="translate(-301.414 -456.797)">
    <path id="Path_12" data-name="Path 12" d="M361.521,456.8q-27.929,0-55.858,0c-3.594,0-4.244.642-4.245,4.147q-.007,20.5,0,41c0,3.738.59,4.35,4.272,4.355q13.9.015,27.808.005,14.025,0,28.049,0c3.565,0,4.241-.668,4.242-4.147q0-20.5,0-41C365.787,457.46,365.15,456.8,361.521,456.8Zm.111,47.38c-9.426-.069-18.852-.033-28.278-.033-9.266,0-18.533-.037-27.8.035-1.667.013-2.168-.456-2.16-2.146q.1-20.491,0-40.981c-.008-1.716.545-2.128,2.182-2.124q28.038.076,56.076,0c1.667-.005,2.165.453,2.157,2.144q-.1,20.491,0,40.981C363.819,503.768,363.273,504.192,361.632,504.179Z" fill="url(#linear-gradient)"/>
    <path id="Path_13" data-name="Path 13" d="M359.762,464.222c.009-1.593-.459-1.968-2.011-1.963q-24.667.086-49.333,0c-1.576-.005-2.009.408-2,1.976q.094,16.764,0,33.528c-.009,1.587.463,1.977,2.018,1.962,8.222-.079,16.445-.037,24.667-.036s16.445-.044,24.667.039c1.575.017,2.008-.4,2-1.974Q359.665,480.987,359.762,464.222Zm-2.093,20.866c-.623,1.026-1.743.505-2.646.544-.7.03-1.683.395-1.858-.873-.12-.867-.342-1.719-.47-2.585-.194-1.314-.411-2.542-2.248-2.168-1.046.213-1.115-.584-1.233-1.308a29.69,29.69,0,0,0-1.119-4.934c-.514,3.29-1.159,6.568-1.488,9.877-.168,1.7-.826,2.309-2.381,2-2.061-.4-2.805.558-3.025,2.471-.21,1.816-.767,3.59-.986,5.406-.2,1.643-1.031,1.869-2.527,1.956-1.789.106-1.917-.909-2.132-2.114-.46-2.59-1.035-5.164-1.362-7.771a9.491,9.491,0,0,0-2.107-4.329c-.936,1.224-1.743,2.281-2.647,3.464a19.893,19.893,0,0,1-4.346-8.5c-.313,2.529-.638,5.056-.935,7.587-.125,1.065-.193,1.89-1.732,1.917s-1.9-.687-2.127-1.9a62.446,62.446,0,0,0-1.967-8.177c-.35,2.66-.823,5.311-1,7.982-.115,1.7-.793,2.184-2.381,2.042-1.346-.121-2.716.04-4.069-.042-.862-.052-2.322.528-2.381-.783-.062-1.4,1.418-.83,2.263-.893a29.34,29.34,0,0,1,3.592-.017c1.023.051,1.355-.372,1.466-1.37.44-3.962.967-7.915,1.475-11.871.095-.734-.157-1.762,1.084-1.743,1.123.018.81,1.036.938,1.639.8,3.74,1.525,7.5,2.285,11.244a2.943,2.943,0,0,0,.872,2.091c.64-5.1,1.235-10.055,1.91-15,.1-.717-.448-2.048,1.031-1.95,1.123.074.838,1.174.934,1.905.373,2.847.74,5.7,1.046,8.55a9.218,9.218,0,0,0,2.058,4.4c2.906-3.46,2.945-3.483,5.269.427,1.636,2.755,1.378,6.006,2.157,8.99.1.384.061.807.182,1.181.161.493.079,1.268.8,1.295s.754-.732.859-1.236c.453-2.183.912-4.37,1.253-6.573.228-1.48.777-2.318,2.443-2.011,1.752.323,2.638-.127,2.846-2.242.445-4.516,1.271-8.995,2.009-13.477.095-.573-.222-1.6.957-1.583,1.1.02.909.992,1.01,1.595.461,2.752.781,5.528,1.258,8.278.126.728-.121,2.04,1.289,1.818,2.075-.325,2.089,1.137,2.308,2.456.275,1.65.012,3.7,2.805,3.23A.73.73,0,0,1,357.669,485.088Z" transform="translate(0.514 0.561)" fill="url(#linear-gradient)"/>
  </g>
</svg>
