<svg xmlns="http://www.w3.org/2000/svg" xmlns:xlink="http://www.w3.org/1999/xlink" width="59.536" height="76.222" viewBox="0 0 59.536 76.222">
  <defs>
    <linearGradient id="linear-gradient" x1="0.5" x2="0.5" y2="1" gradientUnits="objectBoundingBox">
      <stop offset="0" stop-color="#fff"/>
      <stop offset="1" stop-color="#e8e8e8"/>
    </linearGradient>
  </defs>
  <g id="Group_8" data-name="Group 8" transform="translate(-85.858 -537.385)">
    <path id="Path_32" data-name="Path 32" d="M87.053,632.1a2.007,2.007,0,0,1-1.172-2.036c.025-3.646-.083-7.3.029-10.94.34-11.059,5.42-19.248,15.108-24.583.082-.045.172-.078.366-.165-.48,1.411-.953,2.719-1.373,4.045a79.556,79.556,0,0,0-2.783,12.04.874.874,0,0,1-.722.828,6.5,6.5,0,0,0-4.388,6.886,6.513,6.513,0,0,0,12.776.886,6.434,6.434,0,0,0-3.879-7.62c-.631-.246-.695-.482-.593-1.1a72.056,72.056,0,0,1,4.921-17.182.989.989,0,0,1,.707-.643,26.861,26.861,0,0,1,7.176-1.038,50.515,50.515,0,0,1,8.315.288c1,.168,1.986.4,2.98.59a.491.491,0,0,1,.457.407,50.878,50.878,0,0,1,1.545,9.352.977.977,0,0,1-.649,1.059,24.874,24.874,0,0,0-8.679,6.6,9.7,9.7,0,0,0-2.173,4.8,7.113,7.113,0,0,0,2.819,6.651,5.4,5.4,0,0,0,.723.52,1.549,1.549,0,0,0,2.062-.363,1.564,1.564,0,0,0-.22-2.14c-.183-.166-.394-.3-.584-.458a4.059,4.059,0,0,1-1.226-5.295,11.641,11.641,0,0,1,3.2-3.956,26.532,26.532,0,0,1,5.255-3.467c.245-.126.449-.237.722.02a21.884,21.884,0,0,1,5.816,7.879,7.507,7.507,0,0,1,.484,2.013,4,4,0,0,1-2.619,4.358c-.271.118-.561.2-.818.344a1.584,1.584,0,0,0-.661,2,1.566,1.566,0,0,0,1.913.844c4.263-1.317,6.259-5.237,4.952-9.736a20.65,20.65,0,0,0-4.985-8.068,5.873,5.873,0,0,0-.939-.951,3.088,3.088,0,0,1-1.305-2.961,32.953,32.953,0,0,0-1.092-7.622c-.03-.14-.053-.282-.1-.52a22.9,22.9,0,0,1,4.233,2.229,27.551,27.551,0,0,1,12.421,19.23,26.593,26.593,0,0,1,.312,4.372c0,3.5-.016,7,.009,10.495a2.049,2.049,0,0,1-1.176,2.111Z" transform="translate(0 -18.489)" fill="url(#linear-gradient)"/>
    <path id="Path_33" data-name="Path 33" d="M122.514,570.52a16.568,16.568,0,1,1,16.546-16.6A16.578,16.578,0,0,1,122.514,570.52Z" transform="translate(-6.879)" fill="url(#linear-gradient)"/>
  </g>
</svg>
