<svg xmlns="http://www.w3.org/2000/svg" xmlns:xlink="http://www.w3.org/1999/xlink" width="64.375" height="64.375" viewBox="0 0 64.375 64.375">
  <defs>
    <linearGradient id="linear-gradient" x1="0.5" x2="0.5" y2="1" gradientUnits="objectBoundingBox">
      <stop offset="0" stop-color="#fff"/>
      <stop offset="1" stop-color="#e8e8e8"/>
    </linearGradient>
  </defs>
  <g id="Group_5741" data-name="Group 5741" transform="translate(-1051.407 -3636.153)">
    <path id="Icon_awesome-history" data-name="Icon awesome-history" d="M64.937,32.689A32.189,32.189,0,0,1,12.549,57.81a3.113,3.113,0,0,1-.239-4.621l1.462-1.462a3.12,3.12,0,0,1,4.139-.257,23.882,23.882,0,1,0-1.524-36.12l6.587,6.587a2.077,2.077,0,0,1-1.468,3.545H2.639A2.077,2.077,0,0,1,.563,23.405V4.538A2.077,2.077,0,0,1,4.108,3.069l6.408,6.408A32.187,32.187,0,0,1,64.937,32.689Z" transform="translate(1050.844 3635.591)" fill="url(#linear-gradient)"/>
    <path id="Path_4775" data-name="Path 4775" d="M133.019,454.17c0,1.2-.019,2.4.01,3.594.01.429-.122.547-.543.538-1.2-.027-2.4-.037-3.594,0-.524.017-.615-.176-.61-.649.023-2.25.014-4.5.008-6.751,0-1.675-.464-2.138-2.122-2.142-2.25,0-4.5-.016-6.751.01-.515.006-.724-.1-.7-.667.047-1.138.047-2.28,0-3.418-.024-.562.166-.673.687-.666,2.22.027,4.442.014,6.662.011,1.739,0,2.222-.491,2.224-2.244,0-2.221.017-4.442-.011-6.663-.006-.526.12-.715.677-.691,1.079.045,2.164.051,3.243,0,.634-.03.853.117.837.8-.048,2.22-.023,4.442-.016,6.662,0,1.628.515,2.13,2.157,2.134,2.221,0,4.443.027,6.662-.015.633-.012.78.181.753.779-.049,1.079-.047,2.164,0,3.243.024.574-.14.745-.722.736-2.25-.033-4.5-.017-6.751-.012-1.608,0-2.089.48-2.1,2.075C133.013,451.949,133.019,453.059,133.019,454.17Z" transform="translate(952.939 3223.759)" fill="url(#linear-gradient)"/>
  </g>
</svg>
