<svg xmlns="http://www.w3.org/2000/svg" width="73.343" height="71.212" viewBox="0 0 73.343 71.212">
  <g id="Group_2" data-name="Group 2" transform="translate(-295.692 -302.34)">
    <path id="Path_7" data-name="Path 7" d="M325.8,352.058q12.594,0,25.189,0c1.13,0,1.286.144,1.287,1.267q0,1.148,0,2.3c0,1.068-.108,1.172-1.209,1.173q-2.763,0-5.526,0c-.976,0-1.239.211-1.465,1.176a.731.731,0,0,1-.8.655c-.215-.006-.431,0-.646,0H310.4c-1.038,0-1.261.224-1.266,1.259-.007,1.486-.345,1.752-1.823,1.455a.454.454,0,0,1-.407-.5c0-.383,0-.766-.006-1.148-.011-.788-.284-1.065-1.086-1.067q-4.269-.008-8.54,0c-1.26,0-1.582-.313-1.582-1.548q0-10.371,0-20.741c0-1.2.216-1.408,1.426-1.41,2.186-.005,2.187-.005,2.187,2.179q0,6.962,0,13.923c0,1.045.1,1.147,1.155,1.148q12.666,0,25.333,0Z" fill="#fbfbfb"/>
    <path id="Path_8" data-name="Path 8" d="M353.575,369.493c0-.957.007-1.914,0-2.871a1.12,1.12,0,0,0-1.286-1.264c-1.842-.008-3.684,0-5.526,0-1.051,0-1.376-.326-1.379-1.361q0-2.295,0-4.592c0-.914.321-1.255,1.248-1.265,1.818-.021,3.636-.012,5.453-.016,1.133,0,1.491-.358,1.492-1.5,0-1.794,0-3.588,0-5.382,0-.989.345-1.322,1.346-1.324q2.3,0,4.593,0c.945,0,1.279.338,1.281,1.3.006,1.794,0,3.588,0,5.382,0,1.121.379,1.51,1.5,1.515,1.818.009,3.636,0,5.453.015.951.007,1.278.346,1.283,1.312q.012,2.295,0,4.592c-.007.945-.367,1.309-1.3,1.314-1.77.007-3.54,0-5.31,0-1.284,0-1.622.337-1.621,1.6q0,2.619,0,5.238c0,1.047-.311,1.354-1.37,1.357q-2.3.006-4.593,0c-.9,0-1.25-.351-1.258-1.257C353.569,371.359,353.576,370.426,353.575,369.493Z" fill="#fbfbfb"/>
    <path id="Path_9" data-name="Path 9" d="M312.532,367.2a4.526,4.526,0,1,1-4.522-4.563A4.5,4.5,0,0,1,312.532,367.2Z" fill="#fbfbfb"/>
    <path id="Path_10" data-name="Path 10" d="M344.392,336.942c0,.4.019.811,0,1.215a1.113,1.113,0,0,1-2.224,0c-.032-.783-.038-1.57-.007-2.354a1.116,1.116,0,0,1,1.144-1.127,1.165,1.165,0,0,1,1.092,1.189c.014.358,0,.716,0,1.073Z" fill="#fbfbfb"/>
    <path id="Path_11" data-name="Path 11" d="M359.338,345.261c-.957-.011-1.914,0-2.871-.007-.921-.008-1.317-.392-1.317-1.3q0-16.829,0-33.656c0-.806.27-1.079,1.063-1.088.861-.01,1.724.019,2.583-.014a1.131,1.131,0,1,0-.054-2.251c-.861-.014-1.723,0-2.584-.007-.7-.008-.992-.292-1-1-.014-.765.005-1.531-.008-2.3-.014-.816-.438-1.3-1.114-1.3a1.15,1.15,0,0,0-1.142,1.285c-.013.645,0,1.291,0,1.937-.005,1.227-.152,1.377-1.348,1.378-2.488,0-4.976,0-7.463.005a1.787,1.787,0,0,0-2,1.985c-.008,1.268,0,2.535,0,3.8,0,.832-.114.937-.967.94-.55,0-1.1-.009-1.65,0a1.24,1.24,0,0,0-1.392,1.355c-.013.526-.011,1.053,0,1.579.016.88.391,1.261,1.268,1.27q1.866.018,3.732.006c.5,0,.986.082.971.678s-.5.656-1,.651c-1.244-.014-2.488-.018-3.731.006-.8.016-1.189.386-1.241,1.092a5.2,5.2,0,0,0,3.412,5.334.88.88,0,0,1,.686,1.028c-.04,1.553-.03,3.109-.012,4.664.01.9.411,1.345,1.139,1.343s1.1-.462,1.105-1.363c0-1.53.034-3.062-.015-4.592a.939.939,0,0,1,.749-1.115,4.788,4.788,0,0,0,3.294-4.357c.038-2.081.023-4.162.01-6.243a1.207,1.207,0,0,0-1.349-1.322c-.67-.014-1.34-.015-2.009,0a.644.644,0,0,1-.749-.735c0-.79-.01-1.579,0-2.369.014-1.041.348-1.374,1.376-1.376q2.871-.006,5.741,0c1.332,0,1.444.1,1.444,1.426q0,8.252,0,16.505,0,8.361,0,16.721c0,1.02-.371,1.4-1.368,1.4q-12.774,0-25.547.01c-.491,0-.657-.115-.649-.628.028-1.89.03-3.78-.005-5.669-.01-.535.127-.7.673-.7,2.174.027,4.35.015,6.525.007a1.536,1.536,0,0,0,1.752-1.7q.02-6.566-.007-13.132a1.487,1.487,0,0,0-1.65-1.647q-8.539-.015-17.079,0a1.5,1.5,0,0,0-1.662,1.639q-.018,6.565,0,13.132a1.5,1.5,0,0,0,1.731,1.7c2.3,0,4.589,0,6.884,0,.288,0,.637-.088.633.431-.016,2.057-.005,4.114,0,6.171,0,.207-.018.392-.292.383a4.471,4.471,0,0,1-2.155-.33c-4.844-2.62-9.709-5.2-14.569-7.792a1.88,1.88,0,0,0-2.479.3,3.536,3.536,0,0,0,.717,5.379q7.131,3.816,14.268,7.624a2.618,2.618,0,0,0,1.292.315q15.573-.013,31.145,0c.143,0,.287,0,.43,0a.754.754,0,0,0,.8-.747c.15-1.175.419-1.406,1.6-1.407,1.818,0,3.636.005,5.454-.005.781,0,1.017-.253,1.032-1.038.008-.431.012-.862,0-1.292C360.338,345.549,360.052,345.269,359.338,345.261ZM324.356,334.42q-.78-3.491-1.543-6.987l-.143-.007c-.336.935-.7,1.86-1,2.808a1.2,1.2,0,0,1-1.387,1c-1.119-.07-2.247-.024-3.371-.014-.456,0-.857-.1-.865-.625-.009-.541.367-.7.872-.693.98.018,1.962-.019,2.941.015.417.015.576-.147.7-.515.513-1.486,1.055-2.962,1.593-4.439.139-.382.265-.817.793-.778s.583.476.672.882c.26,1.187.531,2.373.8,3.559l.8,3.559a7.345,7.345,0,0,0,.65-1.645.836.836,0,0,1,.9-.641c1.506.017,3.013.01,4.519,0,.488,0,.8.2.785.708s-.378.606-.806.605c-1.22,0-2.44.02-3.659-.011a.665.665,0,0,0-.764.541c-.3.929-.648,1.844-.973,2.766-.144.4-.236.875-.81.84S324.447,334.831,324.356,334.42Z" fill="#fbfbfb"/>
  </g>
</svg>
