<svg xmlns="http://www.w3.org/2000/svg" xmlns:xlink="http://www.w3.org/1999/xlink" width="65.084" height="49.195" viewBox="0 0 65.084 49.195">
  <defs>
    <linearGradient id="linear-gradient" x1="0.5" x2="0.5" y2="1" gradientUnits="objectBoundingBox">
      <stop offset="0" stop-color="#1c1c1c"/>
      <stop offset="1" stop-color="#707070"/>
    </linearGradient>
  </defs>
  <g id="Group_4" data-name="Group 4" transform="translate(-305.177 -609.572)">
    <path id="Path_14" data-name="Path 14" d="M359.844,616.5c-.413-.266-.953-.854-1.22-.748-3.209,1.265-2.644-1.5-3.254-2.986-.157-.381.1-1.152-.706-.848-.207.077-.2.722-.294,1.107a1.254,1.254,0,0,1-.786.253c-.437-.044-.874.022-1.314.007-11.859.049-23.715.014-35.571.03-3.8.006-3.827.036-3.832,3.924-.01,6.881.016,13.763-.018,20.645-.007,1.213.216,2.523-.841,3.5-1.468-.384-.9-1.6-.9-2.462-.041-8.57-.026-17.138-.02-25.708,0-1.26.136-2.581-1.662-2.739.627-1.055,1.67-.89,2.647-.89q20.7-.007,41.406,0c2.869,0,3.4.477,3.4,3.226,0,1.307.048,2.314,1.778,2.112a1.073,1.073,0,0,1,1.237.961Q360.272,616.22,359.844,616.5Z" transform="translate(0.575 0)" fill="url(#linear-gradient)"/>
    <path id="Path_15" data-name="Path 15" d="M309.169,610.86c.135.2.389.4.389.6.02,7.422.018,14.843-.475,22.266V611.22A.246.246,0,0,1,309.169,610.86Z" transform="translate(0.523 0.175)" fill="url(#linear-gradient)"/>
    <path id="Path_16" data-name="Path 16" d="M354.705,652.98c-1.017-3.79-.057-7.618-.514-11.419l.63-.01v11A.324.324,0,0,1,354.705,652.98Z" transform="translate(6.642 4.334)" fill="url(#linear-gradient)"/>
    <path id="Path_17" data-name="Path 17" d="M363.53,630.727a3.681,3.681,0,0,1,.023-2.978,9.086,9.086,0,0,0-5.529-11.847,31.785,31.785,0,0,0-3.621-.773l-.048.615,1.955.929c-1.811.764-3.622.927-4.83,2.275,1.095-.143,2.2.107,3.154-.957.671-.747,1.855-.294,2.789.065,3.613,1.391,5.165,4.8,3.96,9.083-2.038-1.209-4.066-2.435-6.526-2.24h0c.9,1-.583,1.57-.443,2.435.768.6,1.762.4,2.6.738.607.243,1.385.385,1.492,1.147.091.656-.565.955-1.031,1.282-1.086.764-2.219,1.451-3.354,2.137-1.391.838-2.145.685-2.152-1.129,0-.966.22-2.017-.6-2.822-1.436.056-1.424.2-1.436,1.5-.03,3.306,1.76,5.207,4.6,6.4,1.566-1.2,3.291-2.153,4.916-3.262.433-.294.871-.972,1.474-.526.5.371.293,1.067.27,1.624a6.467,6.467,0,0,1-2.841,4.944,7.464,7.464,0,0,0-2.506,2.3q.019,1.274.036,2.548c1.535-.956,3.15-1.808,4.592-2.89A8.847,8.847,0,0,0,363.53,630.727Z" transform="translate(6.065 0.753)" fill="url(#linear-gradient)"/>
    <path id="Path_18" data-name="Path 18" d="M311.876,637.917l41.109.082c-.6.862-1.5.521-2.277.522q-18.319.033-36.64,0C313.323,638.514,312.377,638.94,311.876,637.917Z" transform="translate(0.908 3.841)" fill="url(#linear-gradient)"/>
    <path id="Path_19" data-name="Path 19" d="M348.584,640.968l.044-28.358c.144,0,.29,0,.435,0,0,8.594.014,17.188-.009,25.782C349.052,639.26,349.381,640.229,348.584,640.968Z" transform="translate(5.882 0.411)" fill="url(#linear-gradient)"/>
    <path id="Path_20" data-name="Path 20" d="M362.6,642.445c-.235-1.866-.181-3.809-1.52-5.36-.956-.773-1.987-1.434-2.978-2.151-1.522-1.1-1.677-4.306-.324-5.238,1.129-.243,2.437-.072,3.11-1.361a2.136,2.136,0,0,0,.041-3.361c-1.761-1.192-3.847-2.216-2.613-4.985a4.973,4.973,0,0,1,2.243-1.383c.748-.292,1.807-.362,1.822-1.336.018-1.14-1.249-.718-1.87-1.122-.528-.344-.939-1.118-1.631-.907-1.726.526-1.885-.66-2.149-1.787a8.076,8.076,0,0,0-.3-1.18c-.182-.454-.367-.936-.95-.97s-.827.413-1.008.88a4.2,4.2,0,0,0-.216,1.431c-.03,3.861.036,7.727-.022,11.591-.076,5.009.252,10.023-.181,15.035a2.666,2.666,0,0,1-.542.641c-.226.167-.464.312-.7.459a3.193,3.193,0,0,1-1.447.243q-17.835.022-35.671.007a3.75,3.75,0,0,1-2.151-.438c-.242-.169-.471-.355-.705-.538-.71-.952-.474-2.064-.477-3.119-.022-7.7-.008-15.4-.014-23.093a10.055,10.055,0,0,0-.12-2.474c-.286-1.122-.766-2.079-2.235-1.544a.405.405,0,0,0-.305.562,3.1,3.1,0,0,1,.263,1.566,2.888,2.888,0,0,0-.349-1.2,4.4,4.4,0,0,0-.236,2.428c-.022,6.211-.034,12.422,0,18.633a2.959,2.959,0,0,1-1.473,3.048,5.821,5.821,0,0,0-2.709,5.277c0,4.969.028,9.938-.015,14.907-.018,2.058.872,3.08,2.949,3.08q25.34-.007,50.679,0c1.128,0,2.157-.161,2.542-1.453a34.546,34.546,0,0,1-.216-4.268,20.756,20.756,0,0,0,.332,3.841c.481-.84.207-1.757.251-2.638.154-3.093-.252-6.2.234-9.287A3.612,3.612,0,0,0,362.6,642.445Zm-52.693-9.836c0-5.663.022-11.791-.018-17.918,0-.208.01-.418.024-.628.023,6.208,0,12.417.023,18.626,0,.148.2.405.242.383C310.459,632.9,310.009,633.4,309.908,632.609Zm24.281,18.954c-.12,1.18-1.073,1.257-2.043,1.275a1.627,1.627,0,0,1-1.869-1.406,1.835,1.835,0,0,1,2.238-1.561C333.556,649.947,334.3,650.445,334.188,651.563ZM337,652.828c-1.044.029-1.885-.337-1.836-1.492.048-1.116.925-1.483,1.937-1.472,1.111.011,2.048.386,1.944,1.691C338.953,652.754,337.975,652.863,337,652.828Zm5.806,0c-1.141.02-1.926-.351-1.866-1.533s.961-1.416,1.942-1.425c1.023-.01,1.916.4,1.927,1.477C344.826,652.619,343.839,652.92,342.809,652.827Zm6.781-1.272c-.123,1.208-1.059,1.257-2.027,1.274a1.6,1.6,0,0,1-1.867-1.4c.268-1.335,1.142-1.623,2.232-1.551C348.97,649.942,349.706,650.411,349.59,651.555Zm4.962,3.146a3.51,3.51,0,0,1-3.441-3.233A3.565,3.565,0,0,1,354.5,647.9a3.506,3.506,0,0,1,3.412,3.268A3.429,3.429,0,0,1,354.553,654.7Zm6.589-3.352c.022-1.717.053-3.494-.047-5.391C361.233,647.861,361.173,649.637,361.142,651.349Z" transform="translate(0 0.089)" fill="url(#linear-gradient)"/>
    <path id="Path_21" data-name="Path 21" d="M342.249,625.491a5.041,5.041,0,0,1,.568.911c.764,3.008,2.559,4.347,5.732,3.763.611-.112,1.88-.588,1.824.854-.047,1.217-1.113.642-1.74.712a22.653,22.653,0,0,1-2.484.022c-2.613,0-2.613,0-4-2.184l-2.748,5.373c-.907-2.195-2.017-3.73-4.559-3.279-.795.141-.888-1.053-1.214-1.682-.548-1.064-1.03-2.161-1.711-3.606-1.5,2.982-2.821,5.613-4.237,8.429-1.162-1.441-1.53-3.7-4.076-3.257-.325.058-.886-1.232-1.423-2.023l-2.888,5.5c-.794-2.482-2.039-3.847-4.492-3.3-.427.1-.772-.125-.806-.676-.04-.629.223-.918.835-.92a5.334,5.334,0,0,1,1.976.031c2.944,1.27,3.653-.861,4.515-2.827.232-.529.5-1.039.785-1.615a3.591,3.591,0,0,1,1.557,2.663c.436,2.385,2.841,1.189,3.85,2.383a8.166,8.166,0,0,0,.861-1.147c1.16-2.27,2.287-4.558,3.615-7.221a54.458,54.458,0,0,1,2.826,6.281c.772,2.515,3.007.923,4.383,1.827.815.535.928-1.021,1.32-1.63C341.137,627.913,341.576,626.837,342.249,625.491Z" transform="translate(1.195 1.738)" fill="url(#linear-gradient)"/>
    <path id="Path_22" data-name="Path 22" d="M338.133,615.554c-1.787-.043-2.872.887-2.829,2.7.053,2.294,1.7,2.446,3.619,2.22-.492,1.119-1.274,1.2-1.955,1.455-.42.154-1.128.047-.988.795.164.877.9.52,1.4.477,2.154-.179,3.551-1.906,3.55-4.32C340.933,616.989,340.264,615.606,338.133,615.554Zm-.051,3.744a1.091,1.091,0,0,1-1.121-1.3c.049-.724.405-1.311,1.2-1.218s.919.813,1.03,1.468A1.022,1.022,0,0,1,338.082,619.3Z" transform="translate(4.083 0.811)" fill="url(#linear-gradient)"/>
    <path id="Path_23" data-name="Path 23" d="M343.182,618.215c.405-1.138,1.249-1.112,1.918-1.342.48-.166,1.069-.25.839-.922-.146-.429-.673-.37-1.082-.369a4.051,4.051,0,0,0-3.811,4.1c-.1,2.235.891,3.537,2.781,3.584,1.769.044,2.876-.774,2.9-2.609C346.754,618.369,345.228,617.982,343.182,618.215Zm.823,3.849c-.88.037-1.29-.654-1.34-1.46s.543-1.121,1.153-1.34c.753.224,1.246.622,1.263,1.391C345.1,621.392,344.76,622.032,344.005,622.064Z" transform="translate(4.86 0.814)" fill="url(#linear-gradient)"/>
  </g>
</svg>
