<svg xmlns="http://www.w3.org/2000/svg" xmlns:xlink="http://www.w3.org/1999/xlink" width="67.428" height="55.107" viewBox="0 0 67.428 55.107">
  <defs>
    <linearGradient id="linear-gradient" x1="0.5" x2="0.5" y2="1" gradientUnits="objectBoundingBox">
      <stop offset="0" stop-color="#1c1c1c"/>
      <stop offset="1" stop-color="#707070"/>
    </linearGradient>
  </defs>
  <g id="Group_5" data-name="Group 5" transform="translate(-90.123 -159.398)">
    <path id="Path_24" data-name="Path 24" d="M127.27,219.259q11.521,0,23.043-.014c.543,0,.689.121.68.674-.035,2.282-.01,4.564-.019,6.846a2.983,2.983,0,0,1-2.9,3.038c-.2.01-.394.011-.592.011H107.06a3.643,3.643,0,0,1-1.672-.248,2.918,2.918,0,0,1-1.817-2.733c-.017-2.326.009-4.653-.02-6.978-.006-.493.119-.609.611-.609Q115.716,219.273,127.27,219.259Z" transform="translate(-3.435 -15.31)" fill="url(#linear-gradient)"/>
    <path id="Path_25" data-name="Path 25" d="M153.619,167.835a137.357,137.357,0,0,0-13.085-5.325,54.048,54.048,0,0,0-14.055-3.033,45.415,45.415,0,0,0-15.192,1.757,123.46,123.46,0,0,0-17.408,6.674,6.294,6.294,0,0,0-3.332,3.546c-.166.416-.284.851-.423,1.276v2.107c.166.488.319.982.5,1.464q1.669,4.439,3.35,8.876,2.711,7.159,5.435,14.313c.1.264.119.553.581.551,5.53-.026,11.059-.022,16.589-.023h30.676c.413,0,.787.129,1.017-.488,2.907-7.764,5.864-15.509,8.791-23.266A6.409,6.409,0,0,0,153.619,167.835Zm-15.956,17.917a2.028,2.028,0,0,1-2.274,2.258c-1.711,0-3.422.015-5.133-.01-.414-.007-.509.109-.5.51.022,1.732.013,3.466.008,5.2a2.014,2.014,0,0,1-2.2,2.2c-1.25,0-2.5,0-3.751,0q-1.811,0-3.62,0a2.038,2.038,0,0,1-2.283-2.315c0-1.668-.025-3.335.014-5,.012-.516-.15-.6-.621-.6-1.711.029-3.422.014-5.133.01a2,2,0,0,1-2.16-2.172q-.008-3.718,0-7.437a2.038,2.038,0,0,1,2.256-2.227c1.645-.006,3.291-.024,4.936.011.543.012.747-.076.727-.691-.053-1.665-.022-3.334-.017-5a2.03,2.03,0,0,1,2.2-2.219q3.719-.012,7.437,0a2.029,2.029,0,0,1,2.217,2.2c.006,1.733.014,3.466-.008,5.2-.006.4.085.518.5.512,1.711-.026,3.422-.015,5.133-.01a2.049,2.049,0,0,1,2.276,2.273Q137.666,182.1,137.663,185.753Z" transform="translate(0 0)" fill="url(#linear-gradient)"/>
    <path id="Path_26" data-name="Path 26" d="M125.386,184.51c.834,0,1.668,0,2.5,0a2.009,2.009,0,0,0,2.161-2.175c.007-1.733.018-3.467-.009-5.2-.007-.438.121-.548.545-.535.987.031,1.975.029,2.962,0,.385-.01.467.121.463.481-.017,1.733-.01,3.466-.007,5.2a2.028,2.028,0,0,0,2.24,2.23c1.712,0,3.423.016,5.134-.01.436-.007.551.118.537.543-.032.964-.031,1.931,0,2.9.013.416-.086.556-.531.548-1.668-.029-3.335-.013-5-.011A2.082,2.082,0,0,0,134,190.849c0,1.667-.016,3.335.011,5,.007.438-.121.548-.545.535-.986-.031-1.975-.028-2.961,0-.385.01-.468-.119-.464-.479.018-1.689.009-3.379.007-5.069a2.084,2.084,0,0,0-2.39-2.362c-1.667,0-3.335-.012-5,.008-.383,0-.536-.062-.52-.493.036-1.008.03-2.018,0-3.027-.01-.388.124-.471.483-.462C123.542,184.526,124.464,184.51,125.386,184.51Z" transform="translate(-8.19 -4.4)" fill="url(#linear-gradient)"/>
  </g>
</svg>
