<svg id="Group_1721" data-name="Group 1721" xmlns="http://www.w3.org/2000/svg" xmlns:xlink="http://www.w3.org/1999/xlink" width="108.164" height="98.906" viewBox="0 0 108.164 98.906">
  <defs>
    <clipPath id="clip-path">
      <rect id="Rectangle_55" data-name="Rectangle 55" width="108.164" height="98.906" fill="none"/>
    </clipPath>
    <linearGradient id="linear-gradient" x1="0.5" x2="0.5" y2="1" gradientUnits="objectBoundingBox">
      <stop offset="0" stop-color="#fff"/>
      <stop offset="1" stop-color="#a4a4a4"/>
    </linearGradient>
    <linearGradient id="linear-gradient-2" x1="0.5" x2="0.5" y2="1" gradientUnits="objectBoundingBox">
      <stop offset="0" stop-color="#0d645d"/>
      <stop offset="1" stop-color="#4ab493"/>
    </linearGradient>
  </defs>
  <g id="Group_1720" data-name="Group 1720" clip-path="url(#clip-path)">
    <path id="Path_4763" data-name="Path 4763" d="M16.468,60.872A24.273,24.273,0,0,1,9.5,57.516,22.224,22.224,0,0,1,.407,43.479,6.121,6.121,0,0,0,0,41.456V37.02c.451-1.676.611-3.411,1.218-5.062,2.96-8.052,8.725-12.852,17-14.752a19.558,19.558,0,0,1,4.931-.258,1.109,1.109,0,0,0,1.261-.783A25.6,25.6,0,0,1,43.474.559,24.954,24.954,0,0,1,60.869,3.2a26.085,26.085,0,0,1,10.745,10.81,13.158,13.158,0,0,1,.987,2.209.941.941,0,0,0,1.094.72A18.817,18.817,0,0,1,88.1,23.2a14.988,14.988,0,0,1,3.346,5.187,2.375,2.375,0,0,0,2.407,1.657A15.186,15.186,0,0,1,105.6,37.1a15.836,15.836,0,0,1-.927,18.562A16.277,16.277,0,0,1,94.084,61.53a3.292,3.292,0,0,0-.489.152,2.212,2.212,0,0,1-1.331.177c-4.632.029-9.263-.057-13.895.054a8.041,8.041,0,0,0-1.264-.039q-23.365,0-46.73.006a2.531,2.531,0,0,0-.525.029c-2.947-.114-5.9-.041-8.843-.051a18.152,18.152,0,0,1-3.645-.488,1.276,1.276,0,0,1-.894-.5" transform="translate(0 0)" fill="url(#linear-gradient)"/>
    <path id="Path_4764" data-name="Path 4764" d="M39.618,215.585c3.908,1.019,7.9.661,11.865.728a3.343,3.343,0,0,1,1.457.138c.429.15.5.566.652.909A25.754,25.754,0,0,0,74.875,232.7a25.82,25.82,0,0,0,25.172-13.634c.478-.879.661-1.932,1.487-2.614a6.353,6.353,0,0,1,.924-.136q6.729-.021,13.458-.018a6.993,6.993,0,0,1,.828.1c1.392.58,2.791,1.148,4.176,1.745,1.286.554,1.6,1.253,1.081,2.5q-2.3,5.6-4.642,11.183a1.618,1.618,0,0,1-2.456.985c-2.372-.968-4.741-1.945-7.1-2.951a.82.82,0,0,0-1.2.3,33.659,33.659,0,0,1-7.8,7.8c-.568.407-.546.719-.3,1.283.98,2.291,1.912,4.6,2.852,6.91.572,1.4.309,2.072-1.084,2.656q-5.485,2.3-10.983,4.566a1.649,1.649,0,0,1-2.516-1.053c-1-2.361-1.993-4.721-2.94-7.1a.822.822,0,0,0-1.088-.616,33.353,33.353,0,0,1-11.025.011c-.645-.106-.851.106-1.062.636-.9,2.248-1.834,4.483-2.762,6.72-.715,1.723-1.3,1.965-3,1.262q-5.35-2.216-10.7-4.435c-1.33-.553-1.635-1.248-1.1-2.564.97-2.372,1.944-4.741,2.948-7.1a.776.776,0,0,0-.306-1.12,34.005,34.005,0,0,1-7.877-7.872c-.381-.532-.69-.487-1.2-.269-2.294.973-4.6,1.91-6.91,2.849-1.448.59-2.12.311-2.723-1.137q-2.265-5.443-4.51-10.895c-.543-1.318-.239-2.006,1.1-2.573q3-1.271,6.007-2.539" transform="translate(-23.15 -154.713)" fill="url(#linear-gradient-2)"/>
    <path id="Path_4765" data-name="Path 4765" d="M171.533,112.138c-.124-5.487-.214-10.975-.169-16.464.018-2.268.549-2.816,2.763-2.808,2.289.008,4.578-.011,6.866.011a7.4,7.4,0,0,1,3.249,13.981,7,7,0,0,1-3.436.841c-1.549-.032-3.1.035-4.647-.022-.786-.029-1.031.2-1.017,1,.046,2.711.022,5.422.014,8.134,0,1.365-.638,2.07-1.826,2.065s-1.786-.7-1.795-2.092c-.01-1.549,0-3.1,0-4.648" transform="translate(-122.97 -66.644)" fill="#333"/>
    <path id="Path_4766" data-name="Path 4766" d="M99.406,116.983a3.012,3.012,0,0,1,.264-1.383q3.5-10.582,7.015-21.16c.3-.906.743-1.647,1.9-1.648,1.179,0,1.667.7,1.99,1.671q3.458,10.426,6.924,20.848c.11.332.218.666.3,1a1.864,1.864,0,0,1-1.168,2.455,1.883,1.883,0,0,1-2.378-1.364c-.733-2.122-1.517-4.233-2.1-6.4a1.7,1.7,0,0,0-2.121-1.5,23.462,23.462,0,0,1-3.479.008,1.072,1.072,0,0,0-1.263.908c-.728,2.34-1.512,4.664-2.316,6.98a1.839,1.839,0,0,1-2.995,1.024,1.468,1.468,0,0,1-.577-1.444" transform="translate(-71.322 -66.592)" fill="#333"/>
    <path id="Path_4767" data-name="Path 4767" d="M238.617,118.888c-1.794,0-3.589.01-5.383,0a1.913,1.913,0,0,1-2.017-1.83c-.024-1.1.719-1.773,2-1.791.915-.013,1.831-.03,2.744,0,.606.022.786-.224.785-.808q-.022-8.55.005-17.1c0-.732-.29-.9-.94-.869-.913.038-1.83.026-2.744,0a1.769,1.769,0,0,1-1.849-1.86,1.743,1.743,0,0,1,1.848-1.752q5.594-.025,11.188,0a1.633,1.633,0,0,1,1.779,1.765,1.661,1.661,0,0,1-1.81,1.845c-.949.028-1.9.036-2.85,0-.608-.022-.878.134-.875.815q.034,8.55,0,17.1c0,.738.289.89.937.863.948-.04,1.9-.024,2.85,0a1.8,1.8,0,0,1,.032,3.606c-1.9.036-3.8.01-5.7.01v.006" transform="translate(-165.931 -66.644)" fill="#333"/>
    <path id="Path_4768" data-name="Path 4768" d="M20.056,99.889c.127-6.7,3.3-11.562,9.058-14.836a2.024,2.024,0,0,1,2.953.581c.537.991.075,2.058-1.179,2.741a12.835,12.835,0,0,0-7.162,11.982,11.631,11.631,0,0,0,2.473,7.234c1.058,1.363,1.114,2.07.251,2.966a1.667,1.667,0,0,1-2.5.058,14.967,14.967,0,0,1-3.641-7.353,18.247,18.247,0,0,1-.251-3.372" transform="translate(-14.393 -60.766)" fill="#fff"/>
    <path id="Path_4769" data-name="Path 4769" d="M126.762,20.276c1.846-.249,2.438.957,2.276,2.061a1.6,1.6,0,0,1-1.493,1.521c-5.722.581-9.146,3.983-11.21,9.074-.132.325-.259.653-.4.974a1.834,1.834,0,0,1-3.448-1.247c1.949-5.892,5.59-10.144,11.693-11.982a7.536,7.536,0,0,1,2.583-.4" transform="translate(-80.652 -14.527)" fill="#fff"/>
    <path id="Path_4770" data-name="Path 4770" d="M184.835,109.343c0-.88.044-1.762-.014-2.639-.05-.756.147-1.075.979-1.038,1.475.066,2.955.007,4.434.022a3.731,3.731,0,0,1,3.889,3.5,3.676,3.676,0,0,1-3.656,4.037c-1.614.091-3.237.008-4.855.027-.612.007-.793-.288-.782-.847.02-1.02.006-2.041.005-3.062" transform="translate(-132.63 -75.829)" fill="#cacaca"/>
    <path id="Path_4771" data-name="Path 4771" d="M128,120.122c.567,1.687,1.03,3.073,1.5,4.458.176.522.053.8-.554.791-3.273-.033-2.773.348-1.91-2.372.273-.861.574-1.713.965-2.878" transform="translate(-90.7 -86.205)" fill="#cacaca"/>
  </g>
</svg>
