<svg id="Group_1724" data-name="Group 1724" xmlns="http://www.w3.org/2000/svg" xmlns:xlink="http://www.w3.org/1999/xlink" width="97.645" height="99.592" viewBox="0 0 97.645 99.592">
  <defs>
    <clipPath id="clip-path">
      <rect id="Rectangle_56" data-name="Rectangle 56" width="97.645" height="99.592" fill="none"/>
    </clipPath>
    <linearGradient id="linear-gradient" x1="0.5" x2="0.5" y2="1" gradientUnits="objectBoundingBox">
      <stop offset="0" stop-color="#fff"/>
      <stop offset="1" stop-color="#8b8b8b"/>
    </linearGradient>
    <linearGradient id="linear-gradient-2" x1="0.5" x2="0.5" y2="1" gradientUnits="objectBoundingBox">
      <stop offset="0" stop-color="#0d645d"/>
      <stop offset="1" stop-color="#4ab493"/>
    </linearGradient>
  </defs>
  <g id="Group_1722" data-name="Group 1722" transform="translate(0 0)" clip-path="url(#clip-path)">
    <path id="Path_4772" data-name="Path 4772" d="M49.1,28.061c-5.316.371-9.75,1.784-13.2,5.339-1.894,1.953-3.159,2.23-5.395.114-7.767-7.351-18.486-7.164-26.506.1-.912.826-1.787,2.447-3.211,1.413-1.808-1.312-.05-2.562.633-3.618C10.818,16.871,23.988,8.172,41.21,5.735c2.26-.32,5.052-.032,5-3.762C46.194.73,47.482.042,48.78,0c1.517-.047,2.872.94,2.835,2.188-.1,3.41,2.3,3.144,4.376,3.429C72.576,7.9,85.615,15.951,95.2,29.641c.523.745,1.029,1.506,1.487,2.292.5.863,1.519,1.845.547,2.773-1.177,1.124-2.094-.006-2.967-.809-5.013-4.613-10.781-6.727-17.62-5.3a17.092,17.092,0,0,0-9.522,5.063c-1.717,1.9-2.9,1.957-4.728.061a19.266,19.266,0,0,0-13.3-5.659" transform="translate(0 0)" fill="url(#linear-gradient)"/>
    <path id="Path_4773" data-name="Path 4773" d="M54.65,118.646c-11.195.014-20.8-.482-30.243-3.065-3.728-1.019-4.677-2.5-3.815-6.321,2.352-10.412,10.39-18.4,20.289-19.729,1.938-.259,1.431,1.212,1.653,1.931,1.112,3.6,1.956,7.284,3.09,10.877a17.688,17.688,0,0,0,2.249,4.531c2.948,4.343,7.673,4.355,10.587-.021,2.795-4.2,3.974-9.062,4.824-13.931.586-3.357,1.765-4.021,4.718-2.3a61.71,61.71,0,0,0,6.434,2.81c8.09,3.548,10.6,10.627,11.7,18.576.374,2.695-1.919,2.833-3.519,3.318-9.611,2.914-19.513,3.42-27.966,3.323" transform="translate(-4.324 -19.065)" fill="url(#linear-gradient-2)"/>
    <path id="Path_4774" data-name="Path 4774" d="M57.909,43.254c9.184.091,11.275,3.731,13.461,12.073.639,2.438.942,5.005,1.446,7.508C73.891,68.181,66.2,80.1,61.057,81.782c-4.8,1.575-9.984-.727-12.781-5.866-1.177-2.163-2.392-4.288-3.645-6.405-1.672-2.826-2.759-5.943-.613-9.175.772-1.163.413-2.551.44-3.841.179-8.662,4.823-13.247,13.451-13.239" transform="translate(-9.122 -9.214)" fill="url(#linear-gradient-2)"/>
  </g>
</svg>
