<svg id="Group_13" data-name="Group 13" xmlns="http://www.w3.org/2000/svg" xmlns:xlink="http://www.w3.org/1999/xlink" width="83.628" height="83.273" viewBox="0 0 83.628 83.273">
  <defs>
    <linearGradient id="linear-gradient" x1="0.5" x2="0.5" y2="1" gradientUnits="objectBoundingBox">
      <stop offset="0" stop-color="#0d645d"/>
      <stop offset="1" stop-color="#4ab493"/>
    </linearGradient>
    <clipPath id="clip-path">
      <rect id="Rectangle_9" data-name="Rectangle 9" width="83.628" height="83.273" fill="url(#linear-gradient)"/>
    </clipPath>
    <linearGradient id="linear-gradient-4" x1="0.5" x2="0.5" y2="1" gradientUnits="objectBoundingBox">
      <stop offset="0" stop-color="#1c1c1c"/>
      <stop offset="1" stop-color="#707070"/>
    </linearGradient>
  </defs>
  <g id="Group_12" data-name="Group 12" clip-path="url(#clip-path)">
    <path id="Path_9" data-name="Path 9" d="M97.449,112.918H24.809c-.023-.411-.062-.794-.062-1.177q0-20.079-.021-40.158c0-.919.184-1.264,1.19-1.248q5.779.092,11.561,0c1-.015,1.2.312,1.2,1.241-.039,5.783,0,11.567-.039,17.35A2.3,2.3,0,0,0,39.942,91.2q10.028,5.738,20.01,11.556a2.15,2.15,0,0,0,2.423-.022q10.032-5.841,20.1-11.621a2.072,2.072,0,0,0,1.162-2.019c-.026-5.856,0-11.713-.031-17.569-.005-.876.2-1.2,1.137-1.185,3.926.051,7.853.036,11.78.009.717,0,1.033.146,1.032.955q-.032,20.461-.019,40.921a6.1,6.1,0,0,1-.085.695" transform="translate(-19.332 -54.992)" fill="url(#linear-gradient)"/>
    <path id="Path_10" data-name="Path 10" d="M64.291,45.566H83.628V99.024H0V45.569H19.145c.064.1.128.162.133.224.2,2.427.2,2.427-2.222,2.427q-6.107,0-12.214,0c-1.846,0-2.232.392-2.233,2.245q0,21.876,0,43.753c0,1.786.4,2.186,2.168,2.186q37.025,0,74.051,0c1.775,0,2.18-.4,2.18-2.176q0-21.931,0-43.862c0-1.713-.42-2.141-2.115-2.145q-6.543-.012-13.087,0c-1.523,0-1.523,0-1.516-1.542,0-.325,0-.65,0-1.112" transform="translate(0 -35.626)" fill="url(#linear-gradient)"/>
    <path id="Path_11" data-name="Path 11" d="M101.57,58.461c2.547,1.47,4.931,2.843,7.313,4.219,3.366,1.944,6.743,3.87,10.082,5.858a1.757,1.757,0,0,1,.793,1.222c.05,6.51.035,13.02.032,19.53a6.127,6.127,0,0,1-.077.642,7.006,7.006,0,0,1-.809-.335c-5.57-3.212-11.143-6.419-16.689-9.673a1.61,1.61,0,0,1-.672-1.169c-.041-6.51-.029-13.02-.027-19.53,0-.179.024-.357.054-.765" transform="translate(-79.37 -45.709)" fill="url(#linear-gradient-4)"/>
    <path id="Path_12" data-name="Path 12" d="M216.107,58.83c.025.4.058.686.058.969,0,6.4-.005,12.792.014,19.188a1.291,1.291,0,0,1-.732,1.294q-8.363,4.789-16.7,9.621c-.212.122-.445.207-.8.371-.029-.445-.07-.789-.07-1.132,0-6.251.015-12.5-.024-18.752a1.689,1.689,0,0,1,1.008-1.7c5.455-3.111,10.884-6.266,16.323-9.4.272-.157.563-.28.926-.458" transform="translate(-154.692 -45.997)" fill="url(#linear-gradient-4)"/>
    <path id="Path_13" data-name="Path 13" d="M144.623,10.327c-2.187,1.27-4.249,2.471-6.314,3.664-3.677,2.124-7.369,4.222-11.024,6.384a1.5,1.5,0,0,1-1.762-.035c-5.426-3.159-10.871-6.286-16.308-9.427-.3-.175-.581-.389-.994-.668,1.812-1.052,3.494-2.035,5.181-3.009,4.054-2.342,8.1-4.695,12.179-7A1.768,1.768,0,0,1,127.031.1c5.744,3.262,11.454,6.582,17.171,9.892a5.252,5.252,0,0,1,.421.333" transform="translate(-84.614 0.001)" fill="url(#linear-gradient-4)"/>
    <path id="Path_14" data-name="Path 14" d="M148.013,314.352h-33.72c.214-.377.355-.654.522-.914a22.961,22.961,0,0,0,3.5-8.849c.109-.682.389-.888,1.063-.887q11.774.03,23.547.008c.543,0,.973.007,1.082.727a22.816,22.816,0,0,0,3.734,9.326,4.87,4.87,0,0,1,.274.588" transform="translate(-89.362 -237.454)" fill="url(#linear-gradient-4)"/>
    <path id="Path_15" data-name="Path 15" d="M125.565,369.181H74.6c0-.662-.044-1.271.01-1.87a1.655,1.655,0,0,1,1.525-1.59,8.616,8.616,0,0,1,1.306-.042q22.575,0,45.15,0c2.809,0,3.288.542,2.976,3.5" transform="translate(-58.311 -285.908)" fill="url(#linear-gradient)"/>
  </g>
</svg>
