<svg id="Group_1719" data-name="Group 1719" xmlns="http://www.w3.org/2000/svg" xmlns:xlink="http://www.w3.org/1999/xlink" width="141.76" height="138.763" viewBox="0 0 141.76 138.763">
  <defs>
    <clipPath id="clip-path">
      <rect id="Rectangle_54" data-name="Rectangle 54" width="141.76" height="138.763" fill="none"/>
    </clipPath>
    <linearGradient id="linear-gradient" x1="0.5" x2="0.5" y2="1" gradientUnits="objectBoundingBox">
      <stop offset="0" stop-color="#0d645d"/>
      <stop offset="1" stop-color="#4ab493"/>
    </linearGradient>
  </defs>
  <g id="Group_1718" data-name="Group 1718" clip-path="url(#clip-path)">
    <path id="Path_4751" data-name="Path 4751" d="M165.434,193.019q0,28.571,0,57.141c0,2.756-.626,3.4-3.32,3.4H88.818c-2.7,0-3.328-.638-3.329-3.388q0-28.571-.006-57.141c.49-.223.826.133,1.195.331,3.973,2.138,8.038.7,9.8-3.478a2.056,2.056,0,0,1,.423-.755c1.061-.27,1.031.678,1.291,1.219a6.614,6.614,0,0,0,8.84,3.413,7.029,7.029,0,0,0,3.47-3.631c.219-.495.281-1.231,1.149-1.031.718,1.029,1.058,2.265,1.99,3.2a6.57,6.57,0,0,0,10.9-2.011,3.2,3.2,0,0,1,.583-1.166c1.056-.246,1.022.7,1.283,1.239a6.613,6.613,0,0,0,8.84,3.4,7.026,7.026,0,0,0,3.466-3.63c.219-.495.282-1.229,1.149-1.028.717,1.03,1.059,2.266,1.992,3.2a6.569,6.569,0,0,0,10.905-2.023,3.066,3.066,0,0,1,.589-1.162c.765-.244.891.375,1.118.839,2.119,4.34,5.638,5.487,10.015,3.261.3-.152.586-.372.953-.194" transform="translate(-51.905 -114.795)" fill="url(#linear-gradient)"/>
    <path id="Path_4752" data-name="Path 4752" d="M118.209,0,141.76,2.951,130,23.54c-.857-1.689-1.6-3.19-2.377-4.67-.768-1.455-1.116-3.742-2.393-4.135-1.129-.347-2.841,1.147-4.277,1.865Q98.281,27.929,75.615,39.269c-2.263,1.131-2.727,1.051-4.486-.707-4.5-4.5-9.027-8.98-13.48-13.529a1.386,1.386,0,0,0-2.07-.242Q29.39,40.117,3.187,55.422c-1.126.661-1.553.524-2.154-.585-1.5-2.768-1.563-2.743,1.143-4.323Q28.7,35.024,55.227,19.538c1.859-1.086,2.56-1,4.117.56,4.608,4.6,9.227,9.2,13.8,13.833a1.409,1.409,0,0,0,1.976.326Q98.566,22.48,122.057,10.8c1.033-.513,1.13-.937.61-1.921-1.506-2.845-2.9-5.75-4.458-8.874" transform="translate(0)" fill="#fff"/>
    <path id="Path_4753" data-name="Path 4753" d="M79.663,137.518q3.284-5.55,6.564-11.1a1.175,1.175,0,0,1,1.188-.676c.341.026.685,0,1.028,0q33.48,0,66.961-.027a2.61,2.61,0,0,1,2.684,1.449c1.959,3.494,4.055,6.91,6.1,10.356a2.13,2.13,0,0,1-1.643.437c-4.13,0-8.261.055-12.391-.022q-7.051.082-14.1,0-7.053.082-14.107,0-7.054.082-14.107,0-7.054.082-14.108,0c-4.139.075-8.279.026-12.418.024a2.131,2.131,0,0,1-1.646-.441" transform="translate(-48.371 -76.334)" fill="#116960"/>
    <path id="Path_4754" data-name="Path 4754" d="M258.246,155.786l14.063-.016c.018,4.1.093,8.193.028,12.288a6.938,6.938,0,0,1-2.312,4.75c-4.69,3.226-9.275,1.915-11.44-3.287-.123-.3-.2-.544-.578-.493a1.148,1.148,0,0,1-.269-.949c.136-3.5.02-7,.07-10.5a2.432,2.432,0,0,1,.439-1.793" transform="translate(-156.495 -94.583)" fill="#3ca286"/>
    <path id="Path_4755" data-name="Path 4755" d="M79.531,155.762l14.029.019a1.95,1.95,0,0,1,.47,1.486c.024,3.3.031,6.606,0,9.908a2.489,2.489,0,0,1-.707,1.852,6.936,6.936,0,0,1-10.282,4.578c-.419-.244-.815-.528-1.221-.794A7.988,7.988,0,0,1,79.45,166.6c.1-3.609.061-7.222.081-10.833" transform="translate(-48.239 -94.578)" fill="#0f9787"/>
    <path id="Path_4756" data-name="Path 4756" d="M134.529,249.9c-.795-2.475-1.506-4.976-1.08-7.61,1.073-6.636,6.961-10.247,13.506-8.32,3.181.936,4.693,2.139,7.5,5.973.548-.22.665-.8.95-1.215,3.769-5.547,11.637-7.012,16.624-2.958,3.707,3.013,4.155,7.084,3.224,11.462-.192.9-.51,1.778-.77,2.666-.534.606-1.261.44-1.922.444-3.276.021-6.553.053-9.828-.011a4.239,4.239,0,0,0-3.5,1.473c-.712.8-1.5,1.539-2.276,2.287-1.482,1.435-1.886,1.363-2.659-.5-.824-1.987-1.566-4.009-2.4-5.991-.936-2.218-2.275-2.493-4.039-.854-.107.1-.21.2-.315.307-4,3.889-2.358,3.226-8.155,3.294-1.124.013-2.249.02-3.373-.008-.527-.013-1.094.053-1.483-.443" transform="translate(-80.952 -141.751)" fill="#fff"/>
    <path id="Path_4757" data-name="Path 4757" d="M119.977,268.094c2.935.015,5.871.016,8.805.058a1.792,1.792,0,0,0,1.4-.632c1.023-1.053,2.056-2.1,3.113-3.116,1.642-1.585,3.413-1.233,4.278.859.969,2.346,1.925,4.7,2.827,7.072.306.807.558.908,1.167.264,1.076-1.137,2.234-2.2,3.306-3.336a3.437,3.437,0,0,1,2.724-1.141c4.109.031,8.219-.012,12.329-.028,3.13.015,6.261.068,9.39.024.955-.013,1.226.252,1.226,1.216,0,3.509.037,3.5-3.461,3.51-3.277.007-6.554.03-9.831.046a5.8,5.8,0,0,1-3.6.31,8.977,8.977,0,0,0-9.271,3.833,15.014,15.014,0,0,1-2.065,2.08c-2.013,1.86-4.053,1.44-5.1-1.068q-1.246-2.978-2.4-5.994c-.366-.956-.824-1.18-1.532-.339a4.642,4.642,0,0,1-4.08,1.543c-1.562-.071-3.13-.018-4.7-.014a3.479,3.479,0,0,1-1.849-.35c-3.961-.016-7.922-.067-11.883-.025-1.033.011-1.436-.162-1.414-1.331.06-3.395,0-3.39,3.433-3.4,2.4-.005,4.792-.029,7.188-.044" transform="translate(-66.4 -159.946)" fill="#313c48"/>
    <path id="Path_4758" data-name="Path 4758" d="M143.21,283.6c2.051-.016,4.11-.148,6.151-.015a4.826,4.826,0,0,0,4.614-1.9c.628-.846,1.074-.922,1.5.249.813,2.244,1.747,4.446,2.653,6.656.971,2.368,2.67,2.7,4.509.881q2.605-2.576,5.182-5.182a1.944,1.944,0,0,1,1.495-.757c2.832.052,5.665.046,8.5.062-4.428,6.532-10.359,11.494-16.716,16.013a.854.854,0,0,1-1.164,0c-6.347-4.53-12.287-9.481-16.72-16.009" transform="translate(-86.957 -170.659)" fill="#fff"/>
    <path id="Path_4759" data-name="Path 4759" d="M114.767,169.057c.559-4.407.135-8.832.24-13.247h14.145a2.035,2.035,0,0,1,.433,1.5c.063,3.646-.066,7.293.077,10.938a.986.986,0,0,1-.271.8c-.7-.059-.566.575-.706.918a7.039,7.039,0,0,1-13.215,0c-.139-.341,0-.982-.7-.913" transform="translate(-69.686 -94.607)" fill="#3ca286"/>
    <path id="Path_4760" data-name="Path 4760" d="M186.417,155.811h14.145a2.032,2.032,0,0,1,.433,1.5c.063,3.646-.066,7.294.077,10.938a.989.989,0,0,1-.271.8c-.7-.059-.566.575-.706.918a7.039,7.039,0,0,1-13.214,0c-.141-.344,0-.978-.7-.92a1.148,1.148,0,0,1-.269-.949c.136-3.5.02-7,.07-10.5a2.432,2.432,0,0,1,.439-1.793" transform="translate(-112.881 -94.608)" fill="#3ca286"/>
    <path id="Path_4761" data-name="Path 4761" d="M165.38,155.811c.006,3.8.024,7.589.007,11.384a14.191,14.191,0,0,1-.246,1.858,6.94,6.94,0,0,1-13.591,0c-.546-3.674-.13-7.37-.254-11.054-.024-.728.008-1.459.015-2.189h14.07" transform="translate(-91.844 -94.608)" fill="#0f9787"/>
    <path id="Path_4762" data-name="Path 4762" d="M223.379,169.054c-.545-3.674-.13-7.37-.253-11.054-.024-.729.008-1.459.014-2.189h14.07c.006,3.795.024,7.589.007,11.384a14.258,14.258,0,0,1-.246,1.858,6.941,6.941,0,0,1-13.591,0" transform="translate(-135.459 -94.608)" fill="#0f9787"/>
  </g>
</svg>
